<svg width="22" height="21" viewBox="0 0 22 21" fill="none" xmlns="http://www.w3.org/2000/svg">
<path d="M9.05013 9.60701L1.98013 16.677C1.79418 16.8628 1.64666 17.0833 1.54601 17.3261C1.44536 17.5689 1.39355 17.8292 1.39355 18.092C1.39355 18.3548 1.44536 18.6151 1.54601 18.8579C1.64666 19.1007 1.79418 19.3213 1.98013 19.507C2.35518 19.882 2.8638 20.0926 3.39413 20.0926C3.92446 20.0926 4.43307 19.882 4.80813 19.507L11.8781 12.435M16.1931 12.8L20.0711 16.678C20.4461 17.0531 20.6567 17.5617 20.6567 18.092C20.6567 18.6223 20.4461 19.131 20.0711 19.506C19.6961 19.881 19.1875 20.0916 18.6571 20.0916C18.1268 20.0916 17.6182 19.881 17.2431 19.506L11.0341 13.298M5.73313 4.90401L3.61013 5.61001L1.49013 2.07501L2.90413 0.661011L6.44013 2.78201L5.73313 4.90401ZM5.73313 4.90401L8.56313 7.73401" stroke="white" stroke-width="1.2" stroke-linecap="round" stroke-linejoin="round"/>
<path d="M9.05017 9.60702C8.20617 7.45402 8.37117 4.62902 10.1112 2.88902C11.8512 1.14902 15.0612 0.768018 16.8282 1.82902L13.7882 4.86902L13.5052 7.98002L16.6162 7.69802L19.6562 4.65702C20.7182 6.42502 20.3362 9.63502 18.5962 11.374C16.8562 13.114 14.0322 13.279 11.8792 12.435" stroke="white" stroke-width="1.2" stroke-linecap="round" stroke-linejoin="round"/>
</svg>
