<svg width="29" height="24" viewBox="0 0 29 24" fill="none" xmlns="http://www.w3.org/2000/svg">
<path d="M4.4825 23.8807H24.518C26.9368 23.8807 28.1697 22.6132 28.1697 20.103V7.34455C28.1697 4.83436 26.9368 3.57926 24.518 3.57926H21.797C20.89 3.57926 20.6112 3.38429 20.0877 2.77494L19.1455 1.6779C18.5759 1.00824 17.983 0.642212 16.7734 0.642212H12.1452C10.9475 0.642212 10.3541 1.00824 9.77306 1.6779L8.83085 2.77494C8.31931 3.37181 8.02856 3.57926 7.12158 3.57926H4.482C2.06322 3.57926 0.830261 4.83436 0.830261 7.34455V20.103C0.830261 22.6132 2.06372 23.8807 4.4825 23.8807ZM14.4945 19.9813C10.9822 19.9813 8.15657 17.0198 8.15657 13.3159C8.15657 9.6109 10.9822 6.65046 14.494 6.65046C18.0292 6.65046 20.8434 9.6109 20.8434 13.3159C20.8434 17.0198 18.0178 19.9813 14.494 19.9813M22.8548 10.3419C22.064 10.3419 21.413 9.67226 21.413 8.8435C21.413 8.44278 21.5649 8.05848 21.8353 7.77513C22.1057 7.49178 22.4724 7.3326 22.8548 7.3326C23.2372 7.3326 23.604 7.49178 23.8744 7.77513C24.1448 8.05848 24.2967 8.44278 24.2967 8.8435C24.2967 9.67226 23.6457 10.3419 22.8548 10.3419ZM14.4945 18.1293C15.098 18.1301 15.6956 18.0061 16.2532 17.7645C16.8108 17.5228 17.3175 17.1683 17.7442 16.7212C18.1709 16.2741 18.5092 15.7431 18.7398 15.1588C18.9704 14.5745 19.0887 13.9482 19.088 13.3159C19.0886 12.6836 18.9703 12.0574 18.7396 11.4731C18.509 10.8888 18.1707 10.358 17.744 9.91091C17.3173 9.46385 16.8107 9.10937 16.2531 8.86777C15.6955 8.62617 15.0979 8.50219 14.4945 8.50295C11.9591 8.50295 9.91298 10.6476 9.91298 13.3159C9.91298 15.9847 11.9711 18.1293 14.4945 18.1293Z" fill="#C1CFE2"/>
</svg>
