<svg width="28" height="24" viewBox="0 0 28 24" fill="none" xmlns="http://www.w3.org/2000/svg">
<path d="M3.65224 23.2385H23.6877C26.1065 23.2385 27.3394 21.971 27.3394 19.4608V6.70234C27.3394 4.19215 26.1065 2.93705 23.6877 2.93705H20.9668C20.0598 2.93705 19.7809 2.74208 19.2575 2.13273L18.3153 1.03569C17.7457 0.366027 17.1528 0 15.9431 0H11.3149C10.1172 0 9.52381 0.366027 8.9428 1.03569L8.00059 2.13273C7.48905 2.7296 7.1983 2.93705 6.29132 2.93705H3.65174C1.23296 2.93705 0 4.19215 0 6.70234V19.4608C0 21.971 1.23346 23.2385 3.65224 23.2385ZM13.6643 19.3391C10.1519 19.3391 7.32631 16.3776 7.32631 12.6737C7.32631 8.96869 10.1519 6.00824 13.6638 6.00824C17.1989 6.00824 20.0131 8.96869 20.0131 12.6737C20.0131 16.3776 17.1875 19.3391 13.6638 19.3391M22.0246 9.69971C21.2337 9.69971 20.5827 9.03004 20.5827 8.20128C20.5827 7.80057 20.7346 7.41627 21.005 7.13292C21.2754 6.84957 21.6422 6.69038 22.0246 6.69038C22.407 6.69038 22.7737 6.84957 23.0441 7.13292C23.3145 7.41627 23.4664 7.80057 23.4664 8.20128C23.4664 9.03004 22.8155 9.69971 22.0246 9.69971ZM13.6643 17.4871C14.2677 17.4879 14.8653 17.3639 15.423 17.1223C15.9806 16.8806 16.4872 16.5261 16.9139 16.079C17.3406 15.6319 17.6789 15.1009 17.9095 14.5166C18.1401 13.9323 18.2584 13.306 18.2577 12.6737C18.2584 12.0414 18.14 11.4152 17.9094 10.8309C17.6788 10.2466 17.3404 9.71577 16.9138 9.2687C16.4871 8.82164 15.9804 8.46715 15.4228 8.22555C14.8652 7.98395 14.2676 7.85998 13.6643 7.86073C11.1289 7.86073 9.08272 10.0054 9.08272 12.6737C9.08272 15.3424 11.1408 17.4871 13.6643 17.4871Z" fill="#A3A3A3"/>
</svg>
