<svg width="32" height="34" viewBox="0 0 32 34" fill="none" xmlns="http://www.w3.org/2000/svg">
<path d="M12.6316 5.525V5.95H19.3684V5.525C19.3684 4.62326 19.0135 3.75846 18.3818 3.12084C17.7501 2.48321 16.8934 2.125 16 2.125C15.1066 2.125 14.2499 2.48321 13.6182 3.12084C12.9865 3.75846 12.6316 4.62326 12.6316 5.525ZM10.5263 5.95V5.525C10.5263 4.05968 11.103 2.65437 12.1295 1.61823C13.156 0.582096 14.5483 0 16 0C17.4517 0 18.844 0.582096 19.8705 1.61823C20.897 2.65437 21.4737 4.05968 21.4737 5.525V5.95H30.9474C31.2265 5.95 31.4943 6.06194 31.6917 6.2612C31.8891 6.46046 32 6.73071 32 7.0125C32 7.29429 31.8891 7.56454 31.6917 7.7638C31.4943 7.96306 31.2265 8.075 30.9474 8.075H28.4909L26.8067 28.3526C26.6788 29.8925 25.9823 31.3276 24.8554 32.3736C23.7285 33.4196 22.2535 34.0001 20.7225 34H11.2775C9.74669 33.9999 8.27181 33.4193 7.1451 32.3733C6.01838 31.3274 5.32206 29.8923 5.19411 28.3526L3.50989 8.075H1.05263C0.773456 8.075 0.505715 7.96306 0.308309 7.7638C0.110902 7.56454 0 7.29429 0 7.0125C0 6.73071 0.110902 6.46046 0.308309 6.2612C0.505715 6.06194 0.773456 5.95 1.05263 5.95H10.5263ZM7.29179 28.1749C7.37561 29.1837 7.83183 30.124 8.57003 30.8092C9.30822 31.4945 10.2745 31.8749 11.2775 31.875H20.7225C21.7256 31.8751 22.6921 31.4949 23.4305 30.8095C24.1689 30.1242 24.6252 29.1839 24.7091 28.1749L26.3781 8.075H5.62189L7.29179 28.1749ZM13.8947 13.8125C13.8947 13.673 13.8675 13.5348 13.8146 13.4059C13.7617 13.277 13.6842 13.1599 13.5864 13.0612C13.4887 12.9625 13.3726 12.8843 13.2449 12.8309C13.1172 12.7775 12.9803 12.75 12.8421 12.75C12.7039 12.75 12.567 12.7775 12.4393 12.8309C12.3116 12.8843 12.1955 12.9625 12.0978 13.0612C12 13.1599 11.9225 13.277 11.8696 13.4059C11.8167 13.5348 11.7895 13.673 11.7895 13.8125V26.1375C11.7895 26.277 11.8167 26.4152 11.8696 26.5441C11.9225 26.673 12 26.7901 12.0978 26.8888C12.1955 26.9875 12.3116 27.0657 12.4393 27.1191C12.567 27.1725 12.7039 27.2 12.8421 27.2C12.9803 27.2 13.1172 27.1725 13.2449 27.1191C13.3726 27.0657 13.4887 26.9875 13.5864 26.8888C13.6842 26.7901 13.7617 26.673 13.8146 26.5441C13.8675 26.4152 13.8947 26.277 13.8947 26.1375V13.8125ZM19.1579 12.75C19.7389 12.75 20.2105 13.226 20.2105 13.8125V26.1375C20.2105 26.4193 20.0996 26.6895 19.9022 26.8888C19.7048 27.0881 19.4371 27.2 19.1579 27.2C18.8787 27.2 18.611 27.0881 18.4136 26.8888C18.2162 26.6895 18.1053 26.4193 18.1053 26.1375V13.8125C18.1053 13.226 18.5768 12.75 19.1579 12.75Z" fill="white"/>
</svg>
