<svg width="16" height="16" viewBox="0 0 16 16" fill="none" xmlns="http://www.w3.org/2000/svg">
<path d="M15.1617 0.838293C14.6249 0.301542 13.8968 0 13.1377 0C12.3786 0 11.6505 0.301542 11.1137 0.838293L1.55226 10.3992C1.2273 10.7241 0.998836 11.1329 0.892271 11.5799L0.0162842 15.2612C-0.00743414 15.3609 -0.00521037 15.4651 0.0227435 15.5637C0.0506974 15.6623 0.103449 15.7521 0.175968 15.8245C0.248487 15.8969 0.338355 15.9496 0.437001 15.9774C0.535647 16.0053 0.639781 16.0074 0.739473 15.9836L4.42022 15.1068C4.86756 15.0004 5.2766 14.7719 5.6018 14.4469L15.1617 4.88759C15.6984 4.35083 16 3.62283 16 2.86374C16 2.10465 15.6984 1.37665 15.1617 0.839892M11.9617 1.68783C12.1161 1.53341 12.2995 1.41091 12.5013 1.32734C12.703 1.24376 12.9193 1.20075 13.1377 1.20075C13.3561 1.20075 13.5723 1.24376 13.7741 1.32734C13.9759 1.41091 14.1592 1.53341 14.3137 1.68783C14.4681 1.84225 14.5906 2.02558 14.6742 2.22734C14.7578 2.42911 14.8008 2.64535 14.8008 2.86374C14.8008 3.08213 14.7578 3.29838 14.6742 3.50014C14.5906 3.7019 14.4681 3.88523 14.3137 4.03965L13.6001 4.7508L11.2481 2.39978L11.9617 1.68783ZM10.4001 3.24931L12.7521 5.59954L4.75221 13.5989C4.58422 13.7669 4.37302 13.8845 4.14182 13.9397L1.40906 14.5909L2.05945 11.8583C2.11465 11.6263 2.23305 11.4151 2.40105 11.2471L10.4001 3.24931Z" fill="#446EFF"/>
</svg>
