<svg width="29" height="29" viewBox="0 0 29 29" fill="none" xmlns="http://www.w3.org/2000/svg">
<path fill-rule="evenodd" clip-rule="evenodd" d="M28.3044 4.74102C28.4467 4.95702 28.5101 5.2155 28.4839 5.47283C28.4577 5.73016 28.3435 5.97056 28.1606 6.15344L14.3914 19.9212C14.2505 20.0619 14.0748 20.1627 13.8821 20.2132L8.14708 21.711C7.9575 21.7605 7.75829 21.7595 7.56922 21.7081C7.38015 21.6568 7.20779 21.5569 7.06925 21.4184C6.93072 21.2798 6.83083 21.1075 6.77949 20.9184C6.72815 20.7293 6.72715 20.5301 6.7766 20.3405L8.27439 14.607C8.31811 14.4349 8.4006 14.275 8.51553 14.1397L22.3357 0.328526C22.5463 0.11816 22.8318 0 23.1295 0C23.4272 0 23.7127 0.11816 23.9233 0.328526L28.1606 4.56428C28.2143 4.61821 28.2625 4.67743 28.3044 4.74102ZM25.7776 5.35812L23.1295 2.71151L10.3713 15.4697L9.43518 19.0539L13.0194 18.1178L25.7776 5.35812Z" fill="white"/>
<path d="M25.5867 22.3311C25.9961 18.8322 26.1268 15.3063 25.9777 11.7866C25.9744 11.7037 25.9883 11.621 26.0184 11.5437C26.0486 11.4664 26.0944 11.3961 26.1529 11.3373L27.6267 9.86348C27.667 9.82297 27.7181 9.79496 27.7739 9.78281C27.8297 9.77066 27.8879 9.77488 27.9413 9.79497C27.9948 9.81506 28.0413 9.85016 28.0753 9.89606C28.1093 9.94196 28.1293 9.99669 28.133 10.0537C28.4104 14.2344 28.3051 18.4317 27.8184 22.5932C27.465 25.6218 25.0325 27.9958 22.0175 28.3328C16.7832 28.9124 11.501 28.9124 6.26669 28.3328C3.25313 27.9958 0.819218 25.6218 0.465739 22.5932C-0.155246 17.2842 -0.155246 11.9208 0.465739 6.61177C0.819218 3.58323 3.25163 1.20923 6.26669 0.872223C10.2394 0.431695 14.242 0.324978 18.2326 0.553193C18.2897 0.557293 18.3444 0.577675 18.3903 0.611924C18.4362 0.646173 18.4713 0.692854 18.4915 0.746439C18.5116 0.800024 18.516 0.858268 18.5041 0.914273C18.4922 0.970278 18.4645 1.0217 18.4243 1.06244L16.937 2.54825C16.8787 2.60629 16.8092 2.65178 16.7327 2.68192C16.6562 2.71206 16.5743 2.72621 16.4921 2.72349C13.1622 2.6103 9.82838 2.73794 6.51682 3.10543C5.54916 3.21254 4.64586 3.64273 3.95283 4.32651C3.25981 5.01029 2.81753 5.90774 2.69745 6.87388C2.09691 12.0088 2.09691 17.1962 2.69745 22.3311C2.81753 23.2972 3.25981 24.1947 3.95283 24.8785C4.64586 25.5623 5.54916 25.9925 6.51682 26.0996C11.5419 26.6612 16.7423 26.6612 21.7689 26.0996C22.7365 25.9925 23.6398 25.5623 24.3328 24.8785C25.0259 24.1947 25.4666 23.2972 25.5867 22.3311Z" fill="white"/>
</svg>
