<svg width="23" height="17" viewBox="0 0 23 17" fill="none" xmlns="http://www.w3.org/2000/svg">
<mask id="path-1-inside-1_48_97" fill="white">
<path d="M20.7807 3.16279H18.9649V2.17442C18.9649 1.59773 18.7311 1.04465 18.3149 0.636872C17.8987 0.22909 17.3342 0 16.7456 0H2.2193C1.6307 0 1.06622 0.22909 0.650017 0.636872C0.233818 1.04465 0 1.59773 0 2.17442V11.6628C0 12.2395 0.233818 12.7926 0.650017 13.2003C1.06622 13.6081 1.6307 13.8372 2.2193 13.8372H13.7193V14.8256C13.7193 15.4023 13.9531 15.9553 14.3693 16.3631C14.7855 16.7709 15.35 17 15.9386 17H20.7807C21.3693 17 21.9338 16.7709 22.35 16.3631C22.7662 15.9553 23 15.4023 23 14.8256V5.33721C23 4.76052 22.7662 4.20745 22.35 3.79966C21.9338 3.39188 21.3693 3.16279 20.7807 3.16279ZM2.2193 12.6512C1.95176 12.6512 1.69517 12.547 1.50599 12.3617C1.31681 12.1763 1.21053 11.9249 1.21053 11.6628V2.17442C1.21053 1.91229 1.31681 1.66089 1.50599 1.47553C1.69517 1.29018 1.95176 1.18605 2.2193 1.18605H16.7456C17.0132 1.18605 17.2697 1.29018 17.4589 1.47553C17.6481 1.66089 17.7544 1.91229 17.7544 2.17442V3.16279H15.9386C15.35 3.16279 14.7855 3.39188 14.3693 3.79966C13.9531 4.20745 13.7193 4.76052 13.7193 5.33721V12.6512H2.2193ZM21.7895 14.8256C21.7895 15.0877 21.6832 15.3391 21.494 15.5245C21.3048 15.7098 21.0482 15.814 20.7807 15.814H15.9386C15.6711 15.814 15.4145 15.7098 15.2253 15.5245C15.0361 15.3391 14.9298 15.0877 14.9298 14.8256V5.33721C14.9298 5.07508 15.0361 4.82368 15.2253 4.63832C15.4145 4.45297 15.6711 4.34884 15.9386 4.34884H20.7807C21.0482 4.34884 21.3048 4.45297 21.494 4.63832C21.6832 4.82368 21.7895 5.07508 21.7895 5.33721V14.8256ZM11.7018 16.407C11.7018 16.5643 11.638 16.7151 11.5245 16.8263C11.411 16.9375 11.257 17 11.0965 17H7.0614C6.90088 17 6.74693 16.9375 6.63342 16.8263C6.51991 16.7151 6.45614 16.5643 6.45614 16.407C6.45614 16.2497 6.51991 16.0989 6.63342 15.9876C6.74693 15.8764 6.90088 15.814 7.0614 15.814H11.0965C11.257 15.814 11.411 15.8764 11.5245 15.9876C11.638 16.0989 11.7018 16.2497 11.7018 16.407ZM19.7719 6.9186C19.7719 7.07588 19.7082 7.22672 19.5947 7.33794C19.4811 7.44915 19.3272 7.51163 19.1667 7.51163H17.5526C17.3921 7.51163 17.2382 7.44915 17.1246 7.33794C17.0111 7.22672 16.9474 7.07588 16.9474 6.9186C16.9474 6.76133 17.0111 6.61049 17.1246 6.49927C17.2382 6.38806 17.3921 6.32558 17.5526 6.32558H19.1667C19.3272 6.32558 19.4811 6.38806 19.5947 6.49927C19.7082 6.61049 19.7719 6.76133 19.7719 6.9186Z"/>
</mask>
<path d="M20.7807 3.16279H18.9649V2.17442C18.9649 1.59773 18.7311 1.04465 18.3149 0.636872C17.8987 0.22909 17.3342 0 16.7456 0H2.2193C1.6307 0 1.06622 0.22909 0.650017 0.636872C0.233818 1.04465 0 1.59773 0 2.17442V11.6628C0 12.2395 0.233818 12.7926 0.650017 13.2003C1.06622 13.6081 1.6307 13.8372 2.2193 13.8372H13.7193V14.8256C13.7193 15.4023 13.9531 15.9553 14.3693 16.3631C14.7855 16.7709 15.35 17 15.9386 17H20.7807C21.3693 17 21.9338 16.7709 22.35 16.3631C22.7662 15.9553 23 15.4023 23 14.8256V5.33721C23 4.76052 22.7662 4.20745 22.35 3.79966C21.9338 3.39188 21.3693 3.16279 20.7807 3.16279ZM2.2193 12.6512C1.95176 12.6512 1.69517 12.547 1.50599 12.3617C1.31681 12.1763 1.21053 11.9249 1.21053 11.6628V2.17442C1.21053 1.91229 1.31681 1.66089 1.50599 1.47553C1.69517 1.29018 1.95176 1.18605 2.2193 1.18605H16.7456C17.0132 1.18605 17.2697 1.29018 17.4589 1.47553C17.6481 1.66089 17.7544 1.91229 17.7544 2.17442V3.16279H15.9386C15.35 3.16279 14.7855 3.39188 14.3693 3.79966C13.9531 4.20745 13.7193 4.76052 13.7193 5.33721V12.6512H2.2193ZM21.7895 14.8256C21.7895 15.0877 21.6832 15.3391 21.494 15.5245C21.3048 15.7098 21.0482 15.814 20.7807 15.814H15.9386C15.6711 15.814 15.4145 15.7098 15.2253 15.5245C15.0361 15.3391 14.9298 15.0877 14.9298 14.8256V5.33721C14.9298 5.07508 15.0361 4.82368 15.2253 4.63832C15.4145 4.45297 15.6711 4.34884 15.9386 4.34884H20.7807C21.0482 4.34884 21.3048 4.45297 21.494 4.63832C21.6832 4.82368 21.7895 5.07508 21.7895 5.33721V14.8256ZM11.7018 16.407C11.7018 16.5643 11.638 16.7151 11.5245 16.8263C11.411 16.9375 11.257 17 11.0965 17H7.0614C6.90088 17 6.74693 16.9375 6.63342 16.8263C6.51991 16.7151 6.45614 16.5643 6.45614 16.407C6.45614 16.2497 6.51991 16.0989 6.63342 15.9876C6.74693 15.8764 6.90088 15.814 7.0614 15.814H11.0965C11.257 15.814 11.411 15.8764 11.5245 15.9876C11.638 16.0989 11.7018 16.2497 11.7018 16.407ZM19.7719 6.9186C19.7719 7.07588 19.7082 7.22672 19.5947 7.33794C19.4811 7.44915 19.3272 7.51163 19.1667 7.51163H17.5526C17.3921 7.51163 17.2382 7.44915 17.1246 7.33794C17.0111 7.22672 16.9474 7.07588 16.9474 6.9186C16.9474 6.76133 17.0111 6.61049 17.1246 6.49927C17.2382 6.38806 17.3921 6.32558 17.5526 6.32558H19.1667C19.3272 6.32558 19.4811 6.38806 19.5947 6.49927C19.7082 6.61049 19.7719 6.76133 19.7719 6.9186Z" fill="white"/>
<path d="M18.9649 3.16279H12.9649V9.16279H18.9649V3.16279ZM0 2.17442H-6H0ZM0 11.6628H-6H0ZM13.7193 13.8372H19.7193V7.83721H13.7193V13.8372ZM1.21053 11.6628H-4.78947H1.21053ZM1.21053 2.17442H-4.78947H1.21053ZM17.7544 3.16279V9.16279H23.7544V3.16279H17.7544ZM13.7193 12.6512V18.6512H19.7193V12.6512H13.7193ZM21.7895 14.8256H15.7895H21.7895ZM15.9386 15.814V9.81395V15.814ZM15.9386 4.34884V-1.65116V4.34884ZM20.7807 4.34884V-1.65116V4.34884ZM6.63342 15.9876L2.43433 11.7019L6.63342 15.9876ZM11.5245 15.9876L15.7236 11.7019L11.5245 15.9876ZM17.5526 7.51163V13.5116V7.51163ZM19.1667 6.32558V12.3256V6.32558ZM20.7807 -2.83721H18.9649V9.16279H20.7807V-2.83721ZM24.9649 3.16279V2.17442H12.9649V3.16279H24.9649ZM24.9649 2.17442C24.9649 -0.0335831 24.0685 -2.12576 22.514 -3.64888L14.1158 4.92263C13.3937 4.21507 12.9649 3.22904 12.9649 2.17442H24.9649ZM22.514 -3.64888C20.9636 -5.16793 18.8864 -6 16.7456 -6V6C15.782 6 14.8338 5.6261 14.1158 4.92263L22.514 -3.64888ZM16.7456 -6H2.2193V6H16.7456V-6ZM2.2193 -6C0.0785095 -6 -1.99867 -5.16792 -3.54907 -3.64888L4.8491 4.92263C4.1311 5.6261 3.1829 6 2.2193 6V-6ZM-3.54907 -3.64888C-5.10362 -2.12576 -6 -0.0335845 -6 2.17442H6C6 3.22904 5.57126 4.21507 4.8491 4.92263L-3.54907 -3.64888ZM-6 2.17442V11.6628H6V2.17442H-6ZM-6 11.6628C-6 13.8708 -5.10362 15.963 -3.54907 17.4861L4.8491 8.91458C5.57126 9.62214 6 10.6082 6 11.6628H-6ZM-3.54907 17.4861C-1.99867 19.0051 0.0785095 19.8372 2.2193 19.8372V7.83721C3.1829 7.83721 4.1311 8.21111 4.8491 8.91458L-3.54907 17.4861ZM2.2193 19.8372H13.7193V7.83721H2.2193V19.8372ZM7.7193 13.8372V14.8256H19.7193V13.8372H7.7193ZM7.7193 14.8256C7.7193 17.0336 8.61567 19.1258 10.1702 20.6489L18.5684 12.0774C19.2906 12.7849 19.7193 13.771 19.7193 14.8256H7.7193ZM10.1702 20.6489C11.7206 22.1679 13.7978 23 15.9386 23V11C16.9022 11 17.8504 11.3739 18.5684 12.0774L10.1702 20.6489ZM15.9386 23H20.7807V11H15.9386V23ZM20.7807 23C22.9215 23 24.9987 22.1679 26.5491 20.6489L18.1509 12.0774C18.8689 11.3739 19.8171 11 20.7807 11V23ZM26.5491 20.6489C28.1036 19.1258 29 17.0336 29 14.8256H17C17 13.771 17.4287 12.7849 18.1509 12.0774L26.5491 20.6489ZM29 14.8256V5.33721H17V14.8256H29ZM29 5.33721C29 3.12921 28.1036 1.03703 26.5491 -0.48609L18.1509 8.08542C17.4287 7.37786 17 6.39183 17 5.33721H29ZM26.5491 -0.48609C24.9987 -2.00513 22.9215 -2.83721 20.7807 -2.83721V9.16279C19.8171 9.16279 18.8689 8.7889 18.1509 8.08542L26.5491 -0.48609ZM2.2193 6.65116C3.50394 6.65116 4.76005 7.15001 5.70507 8.07592L-2.6931 16.6474C-1.36971 17.9441 0.399572 18.6512 2.2193 18.6512V6.65116ZM5.70507 8.07592C6.65425 9.00591 7.21053 10.2936 7.21053 11.6628H-4.78947C-4.78947 13.5562 -4.02064 15.3467 -2.6931 16.6474L5.70507 8.07592ZM7.21053 11.6628V2.17442H-4.78947V11.6628H7.21053ZM7.21053 2.17442C7.21053 3.5436 6.65425 4.83131 5.70507 5.76129L-2.6931 -2.81022C-4.02063 -1.50953 -4.78947 0.280974 -4.78947 2.17442H7.21053ZM5.70507 5.76129C4.76006 6.68719 3.50395 7.18605 2.2193 7.18605V-4.81395C0.39956 -4.81395 -1.36972 -4.10684 -2.6931 -2.81022L5.70507 5.76129ZM2.2193 7.18605H16.7456V-4.81395H2.2193V7.18605ZM16.7456 7.18605C15.461 7.18605 14.2049 6.6872 13.2598 5.76129L21.658 -2.81022C20.3346 -4.10684 18.5653 -4.81395 16.7456 -4.81395V7.18605ZM13.2598 5.76129C12.3107 4.8313 11.7544 3.54359 11.7544 2.17442H23.7544C23.7544 0.280986 22.9856 -1.50952 21.658 -2.81022L13.2598 5.76129ZM11.7544 2.17442V3.16279H23.7544V2.17442H11.7544ZM17.7544 -2.83721H15.9386V9.16279H17.7544V-2.83721ZM15.9386 -2.83721C13.7978 -2.83721 11.7206 -2.00513 10.1702 -0.48609L18.5684 8.08542C17.8504 8.7889 16.9022 9.16279 15.9386 9.16279V-2.83721ZM10.1702 -0.48609C8.61567 1.03703 7.7193 3.12921 7.7193 5.33721H19.7193C19.7193 6.39183 19.2906 7.37786 18.5684 8.08542L10.1702 -0.48609ZM7.7193 5.33721V12.6512H19.7193V5.33721H7.7193ZM13.7193 6.65116H2.2193V18.6512H13.7193V6.65116ZM15.7895 14.8256C15.7895 13.4564 16.3457 12.1687 17.2949 11.2387L25.6931 19.8102C27.0206 18.5095 27.7895 16.719 27.7895 14.8256H15.7895ZM17.2949 11.2387C18.24 10.3128 19.4961 9.81395 20.7807 9.81395V21.814C22.6004 21.814 24.3697 21.1068 25.6931 19.8102L17.2949 11.2387ZM20.7807 9.81395H15.9386V21.814H20.7807V9.81395ZM15.9386 9.81395C17.2232 9.81395 18.4793 10.3128 19.4244 11.2387L11.0262 19.8102C12.3496 21.1068 14.1189 21.814 15.9386 21.814V9.81395ZM19.4244 11.2387C20.3736 12.1687 20.9298 13.4564 20.9298 14.8256H8.92982C8.92982 16.719 9.69865 18.5095 11.0262 19.8102L19.4244 11.2387ZM20.9298 14.8256V5.33721H8.92982V14.8256H20.9298ZM20.9298 5.33721C20.9298 6.70638 20.3736 7.99409 19.4244 8.92408L11.0262 0.352571C9.69866 1.65327 8.92982 3.44378 8.92982 5.33721H20.9298ZM19.4244 8.92408C18.4794 9.84999 17.2232 10.3488 15.9386 10.3488V-1.65116C14.1189 -1.65116 12.3496 -0.944048 11.0262 0.352571L19.4244 8.92408ZM15.9386 10.3488H20.7807V-1.65116H15.9386V10.3488ZM20.7807 10.3488C19.4961 10.3488 18.2399 9.84999 17.2949 8.92408L25.6931 0.352571C24.3697 -0.944048 22.6004 -1.65116 20.7807 -1.65116V10.3488ZM17.2949 8.92408C16.3457 7.99409 15.7895 6.70638 15.7895 5.33721H27.7895C27.7895 3.44378 27.0206 1.65327 25.6931 0.352571L17.2949 8.92408ZM15.7895 5.33721V14.8256H27.7895V5.33721H15.7895ZM5.70175 16.407C5.70175 14.933 6.30053 13.5447 7.32539 12.5406L15.7236 21.1121C16.9754 19.8855 17.7018 18.1956 17.7018 16.407H5.70175ZM7.32539 12.5406C8.34609 11.5405 9.70484 11 11.0965 11V23C12.8092 23 14.4758 22.3345 15.7236 21.1121L7.32539 12.5406ZM11.0965 11H7.0614V23H11.0965V11ZM7.0614 11C8.45306 11 9.81181 11.5405 10.8325 12.5406L2.43433 21.1121C3.68204 22.3345 5.34869 23 7.0614 23V11ZM10.8325 12.5406C11.8573 13.5447 12.4561 14.9329 12.4561 16.407H0.456141C0.456141 18.1956 1.18247 19.8855 2.43433 21.1121L10.8325 12.5406ZM12.4561 16.407C12.4561 17.881 11.8573 19.2693 10.8325 20.2734L2.43433 11.7019C1.18247 12.9284 0.456141 14.6184 0.456141 16.407H12.4561ZM10.8325 20.2734C9.81181 21.2735 8.45306 21.814 7.0614 21.814V9.81395C5.34869 9.81395 3.68204 10.4794 2.43433 11.7019L10.8325 20.2734ZM7.0614 21.814H11.0965V9.81395H7.0614V21.814ZM11.0965 21.814C9.70484 21.814 8.34609 21.2735 7.32539 20.2734L15.7236 11.7019C14.4758 10.4794 12.8092 9.81395 11.0965 9.81395V21.814ZM7.32539 20.2734C6.30053 19.2693 5.70175 17.881 5.70175 16.407H17.7018C17.7018 14.6184 16.9754 12.9285 15.7236 11.7019L7.32539 20.2734ZM13.7719 6.9186C13.7719 5.44458 14.3707 4.05631 15.3956 3.05218L23.7937 11.6237C25.0456 10.3971 25.7719 8.70719 25.7719 6.9186H13.7719ZM15.3956 3.05218C16.4163 2.05214 17.775 1.51163 19.1667 1.51163V13.5116C20.8794 13.5116 22.546 12.8462 23.7937 11.6237L15.3956 3.05218ZM19.1667 1.51163H17.5526V13.5116H19.1667V1.51163ZM17.5526 1.51163C18.9443 1.51163 20.303 2.05214 21.3237 3.05218L12.9256 11.6237C14.1733 12.8462 15.8399 13.5116 17.5526 13.5116V1.51163ZM21.3237 3.05218C22.3486 4.05631 22.9474 5.44458 22.9474 6.9186H10.9474C10.9474 8.70719 11.6737 10.3971 12.9256 11.6237L21.3237 3.05218ZM22.9474 6.9186C22.9474 8.39263 22.3486 9.7809 21.3237 10.785L12.9256 2.21352C11.6737 3.44008 10.9474 5.13002 10.9474 6.9186H22.9474ZM21.3237 10.785C20.303 11.7851 18.9443 12.3256 17.5526 12.3256V0.325582C15.8399 0.325582 14.1733 0.991049 12.9256 2.21352L21.3237 10.785ZM17.5526 12.3256H19.1667V0.325582H17.5526V12.3256ZM19.1667 12.3256C17.775 12.3256 16.4163 11.7851 15.3956 10.785L23.7937 2.21352C22.546 0.991049 20.8794 0.325582 19.1667 0.325582V12.3256ZM15.3956 10.785C14.3707 9.7809 13.7719 8.39263 13.7719 6.9186H25.7719C25.7719 5.13002 25.0456 3.44008 23.7937 2.21352L15.3956 10.785Z" fill="white" mask="url(#path-1-inside-1_48_97)"/>
</svg>
