<svg width="27" height="23" viewBox="0 0 27 23" fill="none" xmlns="http://www.w3.org/2000/svg">
<path d="M23.1429 0H3.85714C2.83451 0.00110978 1.85408 0.405334 1.13096 1.12398C0.407852 1.84263 0.00111668 2.81701 0 3.83333V19.1667C0.00111668 20.183 0.407852 21.1574 1.13096 21.876C1.85408 22.5947 2.83451 22.9989 3.85714 23H23.1429C24.1655 22.9989 25.1459 22.5947 25.869 21.876C26.5921 21.1574 26.9989 20.183 27 19.1667V3.83333C26.9989 2.81701 26.5921 1.84263 25.869 1.12398C25.1459 0.405334 24.1655 0.00110978 23.1429 0ZM18.3214 3.83333C18.8936 3.83333 19.4529 4.00195 19.9286 4.31786C20.4043 4.63377 20.7751 5.08278 20.9941 5.60812C21.213 6.13346 21.2703 6.71152 21.1587 7.26922C21.0471 7.82691 20.7716 8.33919 20.367 8.74127C19.9624 9.14334 19.447 9.41716 18.8858 9.52809C18.3246 9.63902 17.743 9.58209 17.2144 9.36449C16.6858 9.14688 16.234 8.77839 15.9161 8.3056C15.5982 7.83281 15.4286 7.27695 15.4286 6.70833C15.4294 5.94608 15.7344 5.21527 16.2768 4.67628C16.8191 4.13728 17.5544 3.83413 18.3214 3.83333ZM3.85714 21.0833C3.34565 21.0833 2.85511 20.8814 2.49344 20.522C2.13176 20.1625 1.92857 19.675 1.92857 19.1667V15.1159L7.64437 10.0667C8.19585 9.58061 8.91306 9.32178 9.64987 9.34292C10.3867 9.36407 11.0877 9.6636 11.61 10.1805L15.5244 14.0623L8.4598 21.0833H3.85714ZM25.0714 19.1667C25.0714 19.675 24.8682 20.1625 24.5066 20.522C24.1449 20.8814 23.6543 21.0833 23.1429 21.0833H11.1875L18.5052 13.8108C19.0233 13.3729 19.6808 13.1317 20.3609 13.1299C21.041 13.1282 21.6998 13.366 22.2202 13.8012L25.0714 16.1623V19.1667Z" fill="#A3A3A3"/>
</svg>
