<svg width="24" height="21" viewBox="0 0 24 21" fill="none" xmlns="http://www.w3.org/2000/svg">
<path d="M13.7143 0C10.9863 0 8.37013 1.10625 6.44119 3.07538C4.51224 5.04451 3.42857 7.71522 3.42857 10.5H0L4.44571 15.0383L4.52571 15.2017L9.14286 10.5H5.71429C5.71429 5.985 9.29143 2.33333 13.7143 2.33333C18.1371 2.33333 21.7143 5.985 21.7143 10.5C21.7143 15.015 18.1371 18.6667 13.7143 18.6667C11.5086 18.6667 9.50857 17.745 8.06857 16.2633L6.44571 17.92C7.39819 18.8977 8.53084 19.6732 9.77836 20.2018C11.0259 20.7304 12.3636 21.0017 13.7143 21C16.4422 21 19.0584 19.8937 20.9874 17.9246C22.9163 15.9555 24 13.2848 24 10.5C24 7.71522 22.9163 5.04451 20.9874 3.07538C19.0584 1.10625 16.4422 4.14963e-08 13.7143 0ZM12.5714 5.83333V11.6667L17.4629 14.63L18.2857 13.2183L14.2857 10.7917V5.83333H12.5714Z" fill="#1044F8"/>
</svg>
