<svg width="22" height="22" viewBox="0 0 22 22" fill="none" xmlns="http://www.w3.org/2000/svg">
<path d="M19.6955 16.6279H17.934C17.8137 16.6279 17.701 16.6816 17.6258 16.7763C17.4504 16.9937 17.2625 17.2035 17.0645 17.403C16.2549 18.2304 15.2959 18.8898 14.2406 19.3447C13.1472 19.8161 11.972 20.058 10.7852 20.0558C9.58493 20.0558 8.42228 19.8154 7.32978 19.3447C6.27445 18.8898 5.31545 18.2304 4.50584 17.403C3.69478 16.5784 3.04805 15.6011 2.60149 14.5251C2.13794 13.4098 1.9049 12.2254 1.9049 11C1.9049 9.77467 2.14044 8.59026 2.60149 7.47491C3.04751 6.39794 3.68897 5.4284 4.50584 4.59701C5.3227 3.76561 6.27237 3.11073 7.32978 2.65538C8.42228 2.18469 9.58493 1.94422 10.7852 1.94422C11.9854 1.94422 13.1481 2.18213 14.2406 2.65538C15.298 3.11073 16.2476 3.76561 17.0645 4.59701C17.2625 4.7991 17.4479 5.00887 17.6258 5.22375C17.701 5.3184 17.8162 5.37212 17.934 5.37212H19.6955C19.8534 5.37212 19.9511 5.19305 19.8634 5.05747C17.9415 2.00818 14.5788 -0.0101938 10.7576 3.87268e-05C4.7539 0.0153875 -0.0595798 4.99096 0.000557408 11.1126C0.0606946 17.137 4.86666 22 10.7852 22C14.5964 22 17.944 19.9842 19.8634 16.9426C19.9486 16.807 19.8534 16.6279 19.6955 16.6279ZM21.9231 10.8389L18.3675 7.97375C18.2347 7.8663 18.0417 7.96351 18.0417 8.13491V10.0791H10.1738C10.0635 10.0791 9.97332 10.1712 9.97332 10.2837V11.7163C9.97332 11.8289 10.0635 11.9209 10.1738 11.9209H18.0417V13.8651C18.0417 14.0365 18.2372 14.1337 18.3675 14.0263L21.9231 11.1612C21.947 11.142 21.9664 11.1176 21.9797 11.0897C21.9931 11.0617 22 11.0311 22 11C22 10.969 21.9931 10.9383 21.9797 10.9104C21.9664 10.8825 21.947 10.858 21.9231 10.8389Z" fill="#1044F8"/>
</svg>
