<svg width="24" height="24" viewBox="0 0 24 24" fill="none" xmlns="http://www.w3.org/2000/svg">
<path d="M8.7 20.8H5.4C4.23305 20.8 3.11389 20.3364 2.28873 19.5113C1.46357 18.6861 1 17.567 1 16.4V6.5C1 5.33305 1.46357 4.21389 2.28873 3.38873C3.11389 2.56357 4.23305 2.1 5.4 2.1H17.5C18.667 2.1 19.7861 2.56357 20.6113 3.38873C21.4364 4.21389 21.9 5.33305 21.9 6.5V9.8M7.6 1V3.2M15.3 1V3.2M1 7.6H21.9M19.15 16.0073L17.5 17.6573" stroke="#1044F8" stroke-width="1.75" stroke-linecap="round" stroke-linejoin="round"/>
<path d="M17.5 23C20.5376 23 23 20.5376 23 17.5C23 14.4624 20.5376 12 17.5 12C14.4624 12 12 14.4624 12 17.5C12 20.5376 14.4624 23 17.5 23Z" stroke="#1044F8" stroke-width="1.75" stroke-linecap="round" stroke-linejoin="round"/>
</svg>
