<svg width="15" height="15" viewBox="0 0 15 15" fill="none" xmlns="http://www.w3.org/2000/svg">
<path d="M14.8045 13.862L11.2545 10.312C12.1359 9.22335 12.6665 7.84 12.6665 6.33335C12.6665 2.84135 9.8252 0 6.33324 0C2.84128 0 0 2.84131 0 6.33332C0 9.82532 2.84131 12.6667 6.33327 12.6667C7.83991 12.6667 9.22324 12.136 10.3119 11.2547L13.8618 14.8047C13.9918 14.9347 14.1625 15 14.3332 15C14.5039 15 14.6745 14.9347 14.8045 14.8047C15.0652 14.544 15.0652 14.1227 14.8045 13.862ZM6.33327 11.3333C3.57596 11.3333 1.33333 9.09066 1.33333 6.33332C1.33333 3.57597 3.57596 1.33331 6.33327 1.33331C9.09059 1.33331 11.3332 3.57597 11.3332 6.33332C11.3332 9.09066 9.09056 11.3333 6.33327 11.3333Z" fill="#242424"/>
</svg>
